<?xml version="1.0" encoding="UTF-8" standalone="no"?>
<!DOCTYPE svg PUBLIC "-//W3C//DTD SVG 1.1//EN" "http://www.w3.org/Graphics/SVG/1.1/DTD/svg11.dtd">
<svg width="100%" height="100%" viewBox="0 0 42 43" version="1.1" xmlns="http://www.w3.org/2000/svg" xmlns:xlink="http://www.w3.org/1999/xlink" xml:space="preserve" xmlns:serif="http://www.serif.com/" style="fill-rule:evenodd;clip-rule:evenodd;stroke-linecap:round;stroke-linejoin:round;stroke-miterlimit:1.5;">
    <g transform="matrix(1,0,0,1,-91.451,-12.0608)">
        <g transform="matrix(0.981228,0,0,0.981228,66.5228,-4.85348)">
            <path d="M49.617,17.747C49.617,17.747 51.383,27.365 54.229,30.211C57.075,33.056 66.692,34.822 66.692,34.822C66.692,34.822 57.075,36.588 54.229,39.434C51.383,42.28 49.617,51.897 49.617,51.897C49.617,51.897 47.851,42.28 45.006,39.434C42.16,36.588 32.543,34.822 32.543,34.822C32.543,34.822 42.16,33.056 45.006,30.211C47.851,27.365 49.617,17.747 49.617,17.747Z" style="fill:rgb(0,94,117);stroke:rgb(0,94,117);stroke-width:1.02px;"/>
        </g>
        <g transform="matrix(0.470101,0,0,0.470101,76.6527,29.5901)">
            <path d="M49.617,17.747C49.617,17.747 51.383,27.365 54.229,30.211C57.075,33.056 66.692,34.822 66.692,34.822C66.692,34.822 57.075,36.588 54.229,39.434C51.383,42.28 49.617,51.897 49.617,51.897C49.617,51.897 47.851,42.28 45.006,39.434C42.16,36.588 32.543,34.822 32.543,34.822C32.543,34.822 42.16,33.056 45.006,30.211C47.851,27.365 49.617,17.747 49.617,17.747Z" style="fill:rgb(0,94,117);stroke:rgb(0,94,117);stroke-width:2.13px;"/>
        </g>
        <g transform="matrix(0.209314,0,0,0.209314,115.703,13.0014)">
            <path d="M49.617,17.747C49.617,17.747 51.383,27.365 54.229,30.211C57.075,33.056 66.692,34.822 66.692,34.822C66.692,34.822 57.075,36.588 54.229,39.434C51.383,42.28 49.617,51.897 49.617,51.897C49.617,51.897 47.851,42.28 45.006,39.434C42.16,36.588 32.543,34.822 32.543,34.822C32.543,34.822 42.16,33.056 45.006,30.211C47.851,27.365 49.617,17.747 49.617,17.747Z" style="fill:rgb(0,94,117);stroke:rgb(0,94,117);stroke-width:2.13px;"/>
        </g>
    </g>
</svg>
