<?xml version="1.0" encoding="UTF-8" standalone="no"?>
<!DOCTYPE svg PUBLIC "-//W3C//DTD SVG 1.1//EN" "http://www.w3.org/Graphics/SVG/1.1/DTD/svg11.dtd">
<svg width="100%" height="100%" viewBox="0 0 393 72" version="1.1" xmlns="http://www.w3.org/2000/svg" xmlns:xlink="http://www.w3.org/1999/xlink" xml:space="preserve" xmlns:serif="http://www.serif.com/" style="fill-rule:evenodd;clip-rule:evenodd;stroke-linecap:round;stroke-linejoin:round;stroke-miterlimit:1.5;">
    <g transform="matrix(1,0,0,1,-50.8752,-21.478)">
        <g transform="matrix(0.595928,0,0,0.595928,-14.3148,-470.039)">
            <g transform="matrix(0.292829,0,0,0.322019,191.632,765.146)">
                <path d="M261.863,361.301L222.933,361.301L178.623,196.404L212.944,196.404L243.166,328.695L243.935,328.695L274.157,196.404L306.941,196.404L261.863,361.301Z" style="fill:rgb(49,51,55);fill-rule:nonzero;"/>
                <path d="M356.372,208.049C356.372,212.708 354.75,216.589 351.506,219.695C348.262,222.8 344.249,224.353 339.468,224.353C334.517,224.353 330.461,222.8 327.302,219.695C324.144,216.589 322.564,212.708 322.564,208.049C322.564,203.547 324.144,199.665 327.302,196.404C330.461,193.144 334.517,191.513 339.468,191.513C344.42,191.513 348.475,193.144 351.634,196.404C354.793,199.665 356.372,203.547 356.372,208.049ZM325.125,361.301L325.125,242.52L353.811,242.52L353.811,361.301L325.125,361.301Z" style="fill:rgb(49,51,55);fill-rule:nonzero;"/>
                <path d="M417.842,262.782L417.842,323.804C417.842,330.325 418.909,335.061 421.043,338.011C423.178,340.961 426.465,342.436 430.904,342.436C432.441,342.436 434.02,342.281 435.642,341.97C437.264,341.66 438.673,341.194 439.868,340.573L440.381,361.068C438.332,362 435.6,362.776 432.185,363.398C428.77,364.019 425.355,364.329 421.94,364.329C410.841,364.329 402.859,361.34 397.992,355.362C393.126,349.384 390.693,340.806 390.693,329.626L390.693,262.782L374.301,262.782L374.301,242.52L390.693,242.52L390.693,212.242L417.842,212.242L417.842,242.52L440.637,242.52L440.637,262.782L417.842,262.782Z" style="fill:rgb(49,51,55);fill-rule:nonzero;"/>
                <path d="M554.099,302.143C554.099,311.46 552.946,319.999 550.641,327.763C548.336,335.526 545.007,342.164 540.652,347.676C536.298,353.189 531.048,357.497 524.901,360.603C518.754,363.708 511.753,365.261 503.899,365.261C496.044,365.261 489.044,363.708 482.897,360.603C476.75,357.497 471.499,353.189 467.145,347.676C462.791,342.164 459.462,335.526 457.157,327.763C454.851,319.999 453.699,311.46 453.699,302.143C453.699,292.672 454.851,284.016 457.157,276.174C459.462,268.333 462.749,261.618 467.017,256.028C471.286,250.438 476.536,246.13 482.769,243.102C489.001,240.074 496.044,238.56 503.899,238.56C511.753,238.56 518.754,240.074 524.901,243.102C531.048,246.13 536.298,250.438 540.652,256.028C545.007,261.618 548.336,268.333 550.641,276.174C552.946,284.016 554.099,292.672 554.099,302.143ZM525.413,301.91C525.413,296.165 524.986,290.847 524.133,285.956C523.279,281.065 521.956,276.795 520.163,273.147C518.37,269.498 516.15,266.625 513.503,264.529C510.857,262.433 507.655,261.385 503.899,261.385C500.142,261.385 496.941,262.433 494.294,264.529C491.648,266.625 489.471,269.498 487.763,273.147C486.056,276.795 484.775,281.065 483.921,285.956C483.068,290.847 482.641,296.165 482.641,301.91C482.641,307.5 483.068,312.779 483.921,317.748C484.775,322.717 486.056,326.987 487.763,330.558C489.471,334.129 491.648,336.963 494.294,339.059C496.941,341.155 500.142,342.203 503.899,342.203C507.655,342.203 510.9,341.155 513.632,339.059C516.364,336.963 518.583,334.129 520.291,330.558C521.998,326.987 523.279,322.717 524.133,317.748C524.986,312.779 525.413,307.5 525.413,301.91Z" style="fill:rgb(49,51,55);fill-rule:nonzero;"/>
                <rect x="581.248" y="185.225" width="29.198" height="176.077" style="fill:rgb(49,51,55);fill-rule:nonzero;"/>
                <path d="M737.995,302.143C737.995,311.46 736.842,319.999 734.537,327.763C732.232,335.526 728.902,342.164 724.548,347.676C720.194,353.189 714.944,357.497 708.797,360.603C702.65,363.708 695.649,365.261 687.795,365.261C679.94,365.261 672.94,363.708 666.793,360.603C660.646,357.497 655.395,353.189 651.041,347.676C646.687,342.164 643.358,335.526 641.052,327.763C638.747,319.999 637.595,311.46 637.595,302.143C637.595,292.672 638.747,284.016 641.052,276.174C643.358,268.333 646.644,261.618 650.913,256.028C655.182,250.438 660.432,246.13 666.665,243.102C672.897,240.074 679.94,238.56 687.795,238.56C695.649,238.56 702.65,240.074 708.797,243.102C714.944,246.13 720.194,250.438 724.548,256.028C728.902,261.618 732.232,268.333 734.537,276.174C736.842,284.016 737.995,292.672 737.995,302.143ZM709.309,301.91C709.309,296.165 708.882,290.847 708.028,285.956C707.175,281.065 705.851,276.795 704.059,273.147C702.266,269.498 700.046,266.625 697.399,264.529C694.753,262.433 691.551,261.385 687.795,261.385C684.038,261.385 680.837,262.433 678.19,264.529C675.544,266.625 673.367,269.498 671.659,273.147C669.952,276.795 668.671,281.065 667.817,285.956C666.964,290.847 666.537,296.165 666.537,301.91C666.537,307.5 666.964,312.779 667.817,317.748C668.671,322.717 669.952,326.987 671.659,330.558C673.367,334.129 675.544,336.963 678.19,339.059C680.837,341.155 684.038,342.203 687.795,342.203C691.551,342.203 694.795,341.155 697.527,339.059C700.259,336.963 702.479,334.129 704.187,330.558C705.894,326.987 707.175,322.717 708.028,317.748C708.882,312.779 709.309,307.5 709.309,301.91Z" style="fill:rgb(49,51,55);fill-rule:nonzero;"/>
                <path d="M906.78,361.301L893.717,344.066C890.302,349.811 885.393,354.741 878.99,358.856C872.587,362.971 864.434,365.028 854.531,365.028C840.017,365.028 828.406,360.797 819.698,352.335C810.99,343.872 806.636,331.878 806.636,316.351C806.636,305.016 809.538,295.544 815.344,287.936C821.149,280.328 828.406,274.195 837.114,269.537C832.333,263.326 828.833,257.387 826.613,251.719C824.393,246.052 823.284,239.88 823.284,233.203C823.284,226.837 824.393,221.092 826.613,215.968C828.833,210.844 831.864,206.497 835.706,202.926C839.547,199.354 844.158,196.598 849.536,194.657C854.915,192.717 860.677,191.746 866.824,191.746C872.801,191.746 878.265,192.639 883.216,194.424C888.168,196.21 892.437,198.772 896.022,202.11C899.608,205.449 902.425,209.525 904.474,214.338C906.523,219.151 907.548,224.586 907.548,230.641C907.548,235.921 906.609,240.734 904.731,245.081C902.852,249.429 900.376,253.388 897.303,256.96C894.23,260.531 890.644,263.792 886.546,266.742C882.448,269.692 878.179,272.409 873.74,274.893L894.486,302.143L908.316,271.633L938.539,271.633L911.646,321.94L942.124,361.301L906.78,361.301ZM880.911,232.272C880.911,226.682 879.716,222.101 877.325,218.53C874.935,214.959 871.435,213.173 866.824,213.173C862.214,213.173 858.5,215.114 855.683,218.996C852.866,222.878 851.457,227.614 851.457,233.203C851.457,238.017 852.311,242.442 854.018,246.479C855.726,250.516 858.287,254.708 861.702,259.056C866.824,255.95 871.307,252.263 875.148,247.993C878.99,243.723 880.911,238.482 880.911,232.272ZM850.689,287.703C846.932,289.877 843.432,293.138 840.188,297.485C836.943,301.833 835.321,307.5 835.321,314.487C835.321,322.717 837.328,329.199 841.34,333.935C845.353,338.671 850.603,341.039 857.092,341.039C862.556,341.039 867.081,339.292 870.666,335.798C874.252,332.305 876.813,328.539 878.35,324.502L850.689,287.703Z" style="fill:rgb(49,51,55);fill-rule:nonzero;"/>
                <path d="M1085.55,361.301L1076.59,326.366L1028.95,326.366L1019.73,361.301L988.995,361.301L1034.07,196.404L1073.26,196.404L1117.57,361.301L1085.55,361.301ZM1053.54,222.723L1052.51,222.723L1032.79,304.472L1072.75,304.472L1053.54,222.723Z" style="fill:rgb(49,51,55);fill-rule:nonzero;"/>
                <path d="M1191.08,269.304C1188.68,266.354 1185.7,263.947 1182.11,262.084C1178.53,260.22 1174.43,259.289 1169.82,259.289C1165.55,259.289 1161.96,260.647 1159.06,263.365C1156.16,266.082 1154.71,269.692 1154.71,274.195C1154.71,278.853 1156.24,282.23 1159.32,284.326C1162.39,286.422 1167.26,288.557 1173.91,290.731C1177.67,291.973 1181.38,293.487 1185.06,295.273C1188.73,297.058 1192.06,299.348 1195.05,302.143C1198.03,304.938 1200.42,308.315 1202.22,312.275C1204.01,316.234 1204.91,320.931 1204.91,326.366C1204.91,332.887 1203.75,338.593 1201.45,343.484C1199.14,348.375 1196.03,352.451 1192.1,355.712C1188.17,358.972 1183.69,361.379 1178.65,362.932C1173.62,364.484 1168.37,365.261 1162.9,365.261C1154.71,365.261 1147.07,363.786 1139.98,360.836C1132.89,357.885 1126.87,353.926 1121.92,348.957L1137.55,332.188C1140.62,335.449 1144.2,338.244 1148.3,340.573C1152.4,342.902 1157.18,344.066 1162.65,344.066C1167.43,344.066 1171.18,342.591 1173.91,339.641C1176.65,336.691 1178.01,332.809 1178.01,327.996C1178.01,322.406 1176.01,318.369 1171.99,315.885C1167.98,313.4 1162.65,311.071 1155.99,308.898C1152.57,307.811 1149.24,306.491 1146,304.938C1142.75,303.386 1139.77,301.289 1137.03,298.65C1134.3,296.01 1132.12,292.788 1130.5,288.984C1128.88,285.18 1128.07,280.561 1128.07,275.126C1128.07,269.381 1129.22,264.257 1131.53,259.755C1133.83,255.252 1136.86,251.409 1140.62,248.226C1144.38,245.043 1148.73,242.636 1153.68,241.006C1158.63,239.375 1163.76,238.56 1169.05,238.56C1176.9,238.56 1183.99,239.841 1190.31,242.403C1196.62,244.965 1202,248.265 1206.44,252.302L1191.08,269.304Z" style="fill:rgb(49,51,55);fill-rule:nonzero;"/>
                <path d="M1284.56,269.304C1282.17,266.354 1279.18,263.947 1275.6,262.084C1272.01,260.22 1267.91,259.289 1263.3,259.289C1259.03,259.289 1255.45,260.647 1252.55,263.365C1249.64,266.082 1248.19,269.692 1248.19,274.195C1248.19,278.853 1249.73,282.23 1252.8,284.326C1255.87,286.422 1260.74,288.557 1267.4,290.731C1271.16,291.973 1274.87,293.487 1278.54,295.273C1282.21,297.058 1285.54,299.348 1288.53,302.143C1291.52,304.938 1293.91,308.315 1295.7,312.275C1297.49,316.234 1298.39,320.931 1298.39,326.366C1298.39,332.887 1297.24,338.593 1294.93,343.484C1292.63,348.375 1289.51,352.451 1285.59,355.712C1281.66,358.972 1277.17,361.379 1272.14,362.932C1267.1,364.484 1261.85,365.261 1256.39,365.261C1248.19,365.261 1240.55,363.786 1233.46,360.836C1226.38,357.885 1220.36,353.926 1215.41,348.957L1231.03,332.188C1234.1,335.449 1237.69,338.244 1241.79,340.573C1245.89,342.902 1250.67,344.066 1256.13,344.066C1260.91,344.066 1264.67,342.591 1267.4,339.641C1270.13,336.691 1271.5,332.809 1271.5,327.996C1271.5,322.406 1269.49,318.369 1265.48,315.885C1261.47,313.4 1256.13,311.071 1249.47,308.898C1246.06,307.811 1242.73,306.491 1239.48,304.938C1236.24,303.386 1233.25,301.289 1230.52,298.65C1227.79,296.01 1225.61,292.788 1223.99,288.984C1222.37,285.18 1221.55,280.561 1221.55,275.126C1221.55,269.381 1222.71,264.257 1225.01,259.755C1227.32,255.252 1230.35,251.409 1234.1,248.226C1237.86,245.043 1242.21,242.636 1247.17,241.006C1252.12,239.375 1257.24,238.56 1262.53,238.56C1270.39,238.56 1277.47,239.841 1283.79,242.403C1290.11,244.965 1295.49,248.265 1299.93,252.302L1284.56,269.304Z" style="fill:rgb(49,51,55);fill-rule:nonzero;"/>
                <path d="M1416.72,302.143C1416.72,311.46 1415.57,319.999 1413.26,327.763C1410.96,335.526 1407.63,342.164 1403.27,347.676C1398.92,353.189 1393.67,357.497 1387.52,360.603C1381.37,363.708 1374.37,365.261 1366.52,365.261C1358.66,365.261 1351.66,363.708 1345.52,360.603C1339.37,357.497 1334.12,353.189 1329.77,347.676C1325.41,342.164 1322.08,335.526 1319.78,327.763C1317.47,319.999 1316.32,311.46 1316.32,302.143C1316.32,292.672 1317.47,284.016 1319.78,276.174C1322.08,268.333 1325.37,261.618 1329.64,256.028C1333.91,250.438 1339.16,246.13 1345.39,243.102C1351.62,240.074 1358.66,238.56 1366.52,238.56C1374.37,238.56 1381.37,240.074 1387.52,243.102C1393.67,246.13 1398.92,250.438 1403.27,256.028C1407.63,261.618 1410.96,268.333 1413.26,276.174C1415.57,284.016 1416.72,292.672 1416.72,302.143ZM1388.03,301.91C1388.03,296.165 1387.61,290.847 1386.75,285.956C1385.9,281.065 1384.58,276.795 1382.78,273.147C1380.99,269.498 1378.77,266.625 1376.12,264.529C1373.48,262.433 1370.28,261.385 1366.52,261.385C1362.76,261.385 1359.56,262.433 1356.91,264.529C1354.27,266.625 1352.09,269.498 1350.38,273.147C1348.68,276.795 1347.39,281.065 1346.54,285.956C1345.69,290.847 1345.26,296.165 1345.26,301.91C1345.26,307.5 1345.69,312.779 1346.54,317.748C1347.39,322.717 1348.68,326.987 1350.38,330.558C1352.09,334.129 1354.27,336.963 1356.91,339.059C1359.56,341.155 1362.76,342.203 1366.52,342.203C1370.28,342.203 1373.52,341.155 1376.25,339.059C1378.98,336.963 1381.2,334.129 1382.91,330.558C1384.62,326.987 1385.9,322.717 1386.75,317.748C1387.61,312.779 1388.03,307.5 1388.03,301.91Z" style="fill:rgb(49,51,55);fill-rule:nonzero;"/>
                <path d="M1515.58,354.314C1512,357.73 1507.64,360.409 1502.52,362.349C1497.4,364.29 1491.59,365.261 1485.1,365.261C1477.08,365.261 1469.99,363.708 1463.85,360.603C1457.7,357.497 1452.58,353.111 1448.48,347.444C1444.38,341.776 1441.31,335.061 1439.26,327.297C1437.21,319.534 1436.18,310.994 1436.18,301.678C1436.18,292.361 1437.25,283.821 1439.39,276.058C1441.52,268.294 1444.68,261.618 1448.86,256.028C1453.05,250.438 1458.17,246.13 1464.23,243.102C1470.29,240.074 1477.34,238.56 1485.36,238.56C1492.36,238.56 1498.38,239.647 1503.42,241.821C1508.45,243.995 1512.42,246.401 1515.33,249.041L1502.26,268.838C1500.39,266.975 1498.21,265.422 1495.73,264.18C1493.26,262.938 1490.23,262.316 1486.64,262.316C1479.47,262.316 1474.05,265.927 1470.38,273.147C1466.71,280.367 1464.87,289.877 1464.87,301.678C1464.87,313.478 1466.75,322.95 1470.51,330.092C1474.26,337.234 1479.98,340.806 1487.66,340.806C1491.25,340.806 1494.32,340.185 1496.89,338.942C1499.45,337.7 1501.67,335.992 1503.55,333.819L1515.58,354.314Z" style="fill:rgb(49,51,55);fill-rule:nonzero;"/>
                <path d="M1565.01,208.049C1565.01,212.708 1563.39,216.589 1560.15,219.695C1556.9,222.8 1552.89,224.353 1548.11,224.353C1543.16,224.353 1539.1,222.8 1535.94,219.695C1532.79,216.589 1531.21,212.708 1531.21,208.049C1531.21,203.547 1532.79,199.665 1535.94,196.404C1539.1,193.144 1543.16,191.513 1548.11,191.513C1553.06,191.513 1557.12,193.144 1560.28,196.404C1563.43,199.665 1565.01,203.547 1565.01,208.049ZM1533.77,361.301L1533.77,242.52L1562.45,242.52L1562.45,361.301L1533.77,361.301Z" style="fill:rgb(49,51,55);fill-rule:nonzero;"/>
                <path d="M1650.3,305.637L1641.85,305.637C1638.27,305.637 1634.81,305.909 1631.48,306.452C1628.15,306.996 1625.2,308.044 1622.64,309.596C1620.08,311.149 1618.03,313.284 1616.5,316.001C1614.96,318.718 1614.19,322.173 1614.19,326.366C1614.19,332.576 1615.68,337.157 1618.67,340.107C1621.66,343.057 1625.12,344.532 1629.05,344.532C1632.97,344.532 1636.3,343.523 1639.03,341.504C1641.77,339.486 1643.94,336.924 1645.57,333.819C1647.19,330.713 1648.38,327.258 1649.15,323.454C1649.92,319.65 1650.3,315.962 1650.3,312.391L1650.3,305.637ZM1651.33,343.601C1649.45,350.122 1646.03,355.207 1641.08,358.856C1636.13,362.505 1629.56,364.329 1621.36,364.329C1617.61,364.329 1613.76,363.708 1609.84,362.466C1605.91,361.224 1602.37,359.166 1599.21,356.294C1596.05,353.421 1593.44,349.695 1591.39,345.114C1589.35,340.534 1588.32,334.983 1588.32,328.462C1588.32,320.077 1589.99,313.206 1593.32,307.85C1596.64,302.493 1600.91,298.262 1606.12,295.156C1611.33,292.051 1617.13,289.916 1623.54,288.751C1629.94,287.587 1636.22,287.004 1642.36,287.004L1649.54,287.004L1649.54,283.278C1649.54,275.359 1647.78,269.653 1644.28,266.159C1640.78,262.666 1636.13,260.919 1630.33,260.919C1625.37,260.919 1620.89,261.967 1616.88,264.063C1612.87,266.159 1609.41,268.915 1606.51,272.331L1592.67,255.795C1597.46,250.361 1603.52,246.13 1610.86,243.102C1618.2,240.074 1625.46,238.56 1632.63,238.56C1640.66,238.56 1647.44,239.725 1652.99,242.054C1658.54,244.383 1663.02,247.76 1666.44,252.185C1669.85,256.61 1672.29,262.084 1673.74,268.605C1675.19,275.126 1675.91,282.502 1675.91,290.731L1675.91,361.301L1651.84,361.301L1651.84,343.601L1651.33,343.601Z" style="fill:rgb(49,51,55);fill-rule:nonzero;"/>
                <path d="M1737.9,262.782L1737.9,323.804C1737.9,330.325 1738.96,335.061 1741.1,338.011C1743.23,340.961 1746.52,342.436 1750.96,342.436C1752.5,342.436 1754.08,342.281 1755.7,341.97C1757.32,341.66 1758.73,341.194 1759.92,340.573L1760.44,361.068C1758.39,362 1755.65,362.776 1752.24,363.398C1748.83,364.019 1745.41,364.329 1742,364.329C1730.9,364.329 1722.91,361.34 1718.05,355.362C1713.18,349.384 1710.75,340.806 1710.75,329.626L1710.75,262.782L1694.36,262.782L1694.36,242.52L1710.75,242.52L1710.75,212.242L1737.9,212.242L1737.9,242.52L1760.69,242.52L1760.69,262.782L1737.9,262.782Z" style="fill:rgb(49,51,55);fill-rule:nonzero;"/>
                <path d="M1802.18,308.665C1802.18,313.323 1802.7,317.709 1803.72,321.824C1804.75,325.939 1806.24,329.51 1808.2,332.538C1810.17,335.565 1812.56,337.972 1815.37,339.758C1818.19,341.543 1821.48,342.436 1825.24,342.436C1830.53,342.436 1834.75,340.883 1837.91,337.778C1841.07,334.673 1843.59,331.101 1845.47,327.064L1866.73,338.244C1862.97,346.473 1857.63,353.033 1850.72,357.924C1843.8,362.815 1834.97,365.261 1824.21,365.261C1809.01,365.261 1796.81,359.826 1787.59,348.957C1778.36,338.088 1773.75,322.484 1773.75,302.143C1773.75,292.672 1774.95,284.016 1777.34,276.174C1779.73,268.333 1783.14,261.618 1787.59,256.028C1792.02,250.438 1797.28,246.13 1803.34,243.102C1809.4,240.074 1816.18,238.56 1823.7,238.56C1832.07,238.56 1839.19,240.113 1845.08,243.218C1850.98,246.324 1855.76,250.555 1859.43,255.912C1863.1,261.268 1865.79,267.596 1867.5,274.893C1869.2,282.191 1870.06,290.11 1870.06,298.65L1870.06,308.665L1802.18,308.665ZM1842.39,289.566C1842.39,280.716 1840.86,273.535 1837.79,268.023C1834.71,262.511 1829.93,259.755 1823.44,259.755C1819.68,259.755 1816.48,260.764 1813.84,262.782C1811.19,264.801 1809.06,267.324 1807.43,270.352C1805.81,273.38 1804.57,276.64 1803.72,280.134C1802.87,283.627 1802.44,286.772 1802.44,289.566L1842.39,289.566Z" style="fill:rgb(49,51,55);fill-rule:nonzero;"/>
                <path d="M1951.76,269.304C1949.37,266.354 1946.38,263.947 1942.8,262.084C1939.21,260.22 1935.11,259.289 1930.5,259.289C1926.23,259.289 1922.65,260.647 1919.74,263.365C1916.84,266.082 1915.39,269.692 1915.39,274.195C1915.39,278.853 1916.93,282.23 1920,284.326C1923.07,286.422 1927.94,288.557 1934.6,290.731C1938.36,291.973 1942.07,293.487 1945.74,295.273C1949.41,297.058 1952.74,299.348 1955.73,302.143C1958.72,304.938 1961.11,308.315 1962.9,312.275C1964.69,316.234 1965.59,320.931 1965.59,326.366C1965.59,332.887 1964.44,338.593 1962.13,343.484C1959.83,348.375 1956.71,352.451 1952.78,355.712C1948.86,358.972 1944.37,361.379 1939.34,362.932C1934.3,364.484 1929.05,365.261 1923.59,365.261C1915.39,365.261 1907.75,363.786 1900.66,360.836C1893.58,357.885 1887.56,353.926 1882.61,348.957L1898.23,332.188C1901.3,335.449 1904.89,338.244 1908.99,340.573C1913.09,342.902 1917.87,344.066 1923.33,344.066C1928.11,344.066 1931.87,342.591 1934.6,339.641C1937.33,336.691 1938.7,332.809 1938.7,327.996C1938.7,322.406 1936.69,318.369 1932.68,315.885C1928.66,313.4 1923.33,311.071 1916.67,308.898C1913.26,307.811 1909.93,306.491 1906.68,304.938C1903.44,303.386 1900.45,301.289 1897.72,298.65C1894.99,296.01 1892.81,292.788 1891.19,288.984C1889.56,285.18 1888.75,280.561 1888.75,275.126C1888.75,269.381 1889.91,264.257 1892.21,259.755C1894.52,255.252 1897.55,251.409 1901.3,248.226C1905.06,245.043 1909.41,242.636 1914.37,241.006C1919.32,239.375 1924.44,238.56 1929.73,238.56C1937.59,238.56 1944.67,239.841 1950.99,242.403C1957.31,244.965 1962.69,248.265 1967.13,252.302L1951.76,269.304Z" style="fill:rgb(49,51,55);fill-rule:nonzero;"/>
            </g>
            <g transform="matrix(0.409124,0,0,0.0400516,243.56,905.628)">
                <path d="M80.457,848.905C78.257,883.86 75.446,911.949 72.024,933.171C68.602,954.394 64.447,965.005 59.558,965.005C54.751,965.005 50.433,953.354 46.604,930.051C42.775,906.747 39.556,874.289 36.949,832.676C34.342,791.063 32.346,742.168 30.961,685.99C29.576,629.813 28.883,568.434 28.883,501.853C28.883,435.272 29.596,373.685 31.022,317.091C32.448,260.497 34.485,211.602 37.133,170.405C39.78,129.208 42.999,96.958 46.787,73.655C50.576,50.352 54.833,38.7 59.558,38.7C63.958,38.7 67.991,47.439 71.657,64.916C75.324,82.394 78.338,109.026 80.701,144.813L73.857,220.965C72.065,194.333 69.987,174.567 67.624,161.666C65.262,148.766 62.736,142.316 60.047,142.316C56.707,142.316 53.814,151.887 51.37,171.029C48.926,190.171 46.909,215.971 45.321,248.43C43.732,280.888 42.53,318.964 41.715,362.657C40.901,406.351 40.493,452.749 40.493,501.853C40.493,550.956 40.901,597.147 41.715,640.424C42.53,683.702 43.752,721.777 45.382,754.652C47.011,787.526 49.069,813.534 51.554,832.676C54.039,851.818 56.951,861.389 60.292,861.389C63.306,861.389 65.975,853.066 68.297,836.421C70.619,819.776 72.472,799.386 73.857,775.25L80.457,848.905Z" style="fill:rgb(34,50,68);fill-opacity:0.85;fill-rule:nonzero;"/>
                <path d="M97.078,657.901C97.078,687.863 97.342,715.744 97.872,741.544C98.402,767.344 99.176,789.815 100.194,808.957C101.212,828.099 102.496,843.079 104.044,853.899C105.592,864.718 107.384,870.128 109.421,870.128C112.191,870.128 114.391,861.389 116.02,843.912C117.65,826.434 118.954,805.628 119.931,781.492L127.753,827.683C126.123,867.631 123.781,900.505 120.726,926.305C117.67,952.105 113.78,965.005 109.054,965.005C102.048,965.005 96.548,935.668 92.556,876.994C88.563,818.32 86.567,736.55 86.567,631.685C86.567,581.75 87.097,536.183 88.156,494.987C89.215,453.79 90.723,418.419 92.678,388.873C94.633,359.328 96.996,336.441 99.766,320.212C102.536,303.983 105.592,295.868 108.932,295.868C112.68,295.868 115.858,303.983 118.465,320.212C121.072,336.441 123.211,358.496 124.881,386.377C126.551,414.257 127.753,447.132 128.486,484.999C129.219,522.867 129.586,563.44 129.586,606.718L129.586,657.901L97.078,657.901ZM119.076,571.763C119.076,516.833 118.241,472.516 116.57,438.809C114.9,405.103 112.273,388.249 108.688,388.249C106.569,388.249 104.797,394.699 103.372,407.599C101.946,420.499 100.785,436.312 99.888,455.038C98.992,473.764 98.34,493.738 97.933,514.961C97.526,536.183 97.322,555.117 97.322,571.763L119.076,571.763Z" style="fill:rgb(34,50,68);fill-opacity:0.85;fill-rule:nonzero;"/>
                <path d="M154.273,446.924C155.332,394.491 157.043,356.207 159.406,332.072C161.769,307.936 164.498,295.868 167.594,295.868C168.246,295.868 168.735,296.285 169.061,297.117L168.572,408.224C168.246,407.391 167.92,406.767 167.594,406.351C167.268,405.935 166.902,405.727 166.494,405.727C164.539,405.727 162.807,412.177 161.3,425.077C159.793,437.977 158.53,454.83 157.512,475.637C156.493,496.443 155.719,519.954 155.19,546.171C154.66,572.387 154.395,599.227 154.395,626.692L154.395,943.783L143.885,943.783L143.885,475.637C143.885,450.669 143.844,423.828 143.763,395.115C143.681,366.402 143.559,340.394 143.396,317.091L153.295,317.091C153.54,337.898 153.723,359.536 153.845,382.007C153.967,404.478 154.028,426.117 154.028,446.924L154.273,446.924Z" style="fill:rgb(34,50,68);fill-opacity:0.85;fill-rule:nonzero;"/>
                <path d="M200.347,942.534C199.451,947.528 198.269,951.689 196.803,955.018C195.336,958.347 193.87,960.012 192.403,960.012C187.678,960.012 184.317,944.615 182.321,913.821C180.324,883.028 179.326,840.166 179.326,785.237L179.326,403.23L171.505,403.23L171.505,317.091L179.204,317.091L179.204,149.807L189.348,149.807L189.348,317.091L200.225,317.091L200.225,403.23L189.348,403.23L189.348,764.015C189.348,800.634 189.877,827.058 190.937,843.287C191.996,859.516 193.585,867.631 195.703,867.631C196.436,867.631 197.21,866.591 198.025,864.51C198.84,862.429 199.532,860.141 200.102,857.644L200.347,942.534Z" style="fill:rgb(34,50,68);fill-opacity:0.85;fill-rule:nonzero;"/>
                <path d="M222.467,131.081C222.467,151.887 221.836,168.949 220.573,182.265C219.31,195.581 217.783,202.239 215.99,202.239C214.116,202.239 212.568,195.581 211.346,182.265C210.124,168.949 209.513,151.887 209.513,131.081C209.513,111.107 210.124,94.253 211.346,80.521C212.568,66.789 214.116,59.923 215.99,59.923C217.864,59.923 219.412,66.789 220.634,80.521C221.856,94.253 222.467,111.107 222.467,131.081ZM210.735,943.783L210.735,317.091L221.123,317.091L221.123,943.783L210.735,943.783Z" style="fill:rgb(34,50,68);fill-opacity:0.85;fill-rule:nonzero;"/>
                <path d="M261.697,73.655C260.638,69.494 259.457,67.413 258.153,67.413C256.524,67.413 255.179,71.366 254.12,79.273C253.061,87.179 252.226,97.374 251.615,109.858C251.004,122.342 250.576,136.699 250.332,152.928C250.087,169.157 249.965,186.01 249.965,203.488L249.965,317.091L259.986,317.091L259.986,403.23L250.087,403.23L250.087,943.783L239.821,943.783L239.821,403.23L231.878,403.23L231.878,317.091L239.821,317.091L239.821,202.239C239.821,169.781 240.147,139.82 240.799,112.355C241.451,84.891 242.469,61.171 243.854,41.197C245.24,21.223 247.012,5.618 249.171,-5.618C251.33,-16.853 253.917,-22.471 256.931,-22.471C257.827,-22.471 258.764,-21.847 259.742,-20.598C260.72,-19.35 261.616,-17.061 262.431,-13.732L261.697,73.655ZM269.641,943.783L269.641,317.091L280.029,317.091L280.029,943.783L269.641,943.783ZM281.374,131.081C281.374,151.887 280.742,168.949 279.479,182.265C278.216,195.581 276.689,202.239 274.896,202.239C273.022,202.239 271.474,195.581 270.252,182.265C269.03,168.949 268.419,151.887 268.419,131.081C268.419,111.107 269.03,94.253 270.252,80.521C271.474,66.789 273.022,59.923 274.896,59.923C276.77,59.923 278.318,66.789 279.54,80.521C280.763,94.253 281.374,111.107 281.374,131.081Z" style="fill:rgb(34,50,68);fill-opacity:0.85;fill-rule:nonzero;"/>
                <path d="M305.083,657.901C305.083,687.863 305.348,715.744 305.877,741.544C306.407,767.344 307.181,789.815 308.199,808.957C309.218,828.099 310.501,843.079 312.049,853.899C313.597,864.718 315.389,870.128 317.426,870.128C320.196,870.128 322.396,861.389 324.026,843.912C325.655,826.434 326.959,805.628 327.936,781.492L335.758,827.683C334.129,867.631 331.786,900.505 328.731,926.305C325.676,952.105 321.785,965.005 317.06,965.005C310.053,965.005 304.553,935.668 300.561,876.994C296.569,818.32 294.573,736.55 294.573,631.685C294.573,581.75 295.102,536.183 296.161,494.987C297.22,453.79 298.728,418.419 300.683,388.873C302.639,359.328 305.001,336.441 307.771,320.212C310.542,303.983 313.597,295.868 316.937,295.868C320.685,295.868 323.863,303.983 326.47,320.212C329.077,336.441 331.216,358.496 332.886,386.377C334.556,414.257 335.758,447.132 336.491,484.999C337.225,522.867 337.591,563.44 337.591,606.718L337.591,657.901L305.083,657.901ZM327.081,571.763C327.081,516.833 326.246,472.516 324.576,438.809C322.905,405.103 320.278,388.249 316.693,388.249C314.575,388.249 312.803,394.699 311.377,407.599C309.951,420.499 308.79,436.312 307.894,455.038C306.997,473.764 306.346,493.738 305.938,514.961C305.531,536.183 305.327,555.117 305.327,571.763L327.081,571.763Z" style="fill:rgb(34,50,68);fill-opacity:0.85;fill-rule:nonzero;"/>
                <path d="M382.321,943.783L382.321,845.16L382.076,845.16C381.099,879.283 379.53,907.788 377.371,930.675C375.212,953.562 372.014,965.005 367.778,965.005C364.682,965.005 361.911,956.475 359.467,939.413C357.023,922.352 354.966,898.841 353.295,868.879C351.625,838.918 350.362,803.339 349.507,762.142C348.651,720.945 348.224,675.795 348.224,626.692C348.224,578.421 348.631,534.103 349.446,493.738C350.261,453.374 351.503,418.419 353.173,388.873C354.844,359.328 356.901,336.441 359.345,320.212C361.789,303.983 364.6,295.868 367.778,295.868C371.363,295.868 374.377,306.272 376.821,327.078C379.266,347.885 380.936,374.517 381.832,406.975L382.076,406.975L382.076,-0L392.465,-0L392.465,943.783L382.321,943.783ZM382.321,630.437C382.321,596.314 382.076,564.48 381.588,534.935C381.099,505.39 380.345,479.798 379.327,458.159C378.308,436.52 377.066,419.459 375.599,406.975C374.133,394.491 372.422,388.249 370.466,388.249C368.429,388.249 366.698,394.491 365.272,406.975C363.846,419.459 362.665,436.52 361.728,458.159C360.791,479.798 360.099,505.39 359.651,534.935C359.202,564.48 358.978,596.314 358.978,630.437C358.978,664.56 359.202,696.185 359.651,725.315C360.099,754.444 360.791,779.828 361.728,801.466C362.665,823.105 363.846,840.166 365.272,852.65C366.698,865.134 368.429,871.376 370.466,871.376C372.422,871.376 374.153,865.134 375.66,852.65C377.168,840.166 378.41,823.105 379.388,801.466C380.366,779.828 381.099,754.444 381.588,725.315C382.076,696.185 382.321,664.56 382.321,630.437Z" style="fill:rgb(34,50,68);fill-opacity:0.85;fill-rule:nonzero;"/>
                <path d="M478.991,308.352C478.991,350.798 478.38,388.249 477.158,420.707C475.935,453.166 474.286,480.006 472.208,501.229C470.13,522.451 467.768,538.472 465.12,549.292C462.472,560.111 459.681,565.521 456.748,565.521L445.016,565.521L445.016,943.783L434.139,943.783L434.139,59.923L456.015,59.923C458.622,59.923 461.29,63.876 464.02,71.782C466.749,79.689 469.214,93.213 471.414,112.355C473.613,131.497 475.426,157.089 476.852,189.131C478.278,221.173 478.991,260.913 478.991,308.352ZM468.114,309.601C468.114,256.336 466.892,217.428 464.448,192.876C462.003,168.325 458.826,156.049 454.915,156.049L445.016,156.049L445.016,471.891L454.915,471.891C458.826,471.891 462.003,458.367 464.448,431.319C466.892,404.27 468.114,363.698 468.114,309.601Z" style="fill:rgb(34,50,68);fill-opacity:0.85;fill-rule:nonzero;"/>
                <path d="M498.667,317.091L498.667,716.576C498.667,734.053 498.748,751.947 498.911,770.257C499.074,788.566 499.461,805.212 500.072,820.192C500.683,835.173 501.559,847.241 502.7,856.396C503.841,865.55 505.389,870.128 507.344,870.128C509.055,870.128 510.644,865.342 512.11,855.771C513.577,846.2 514.84,832.884 515.899,815.823C516.958,798.761 517.773,778.371 518.343,754.652C518.913,730.932 519.199,704.924 519.199,676.627L519.199,317.091L529.587,317.091L529.587,785.237C529.587,810.205 529.627,837.045 529.709,865.758C529.79,894.471 529.913,920.48 530.075,943.783L520.176,943.783C519.932,922.976 519.749,902.17 519.626,881.363C519.504,860.557 519.443,845.16 519.443,835.173L519.199,835.173C518.058,871.792 516.164,902.586 513.516,927.554C510.868,952.522 507.629,965.005 503.8,965.005C500.459,965.005 497.771,957.931 495.734,943.783C493.697,929.634 492.129,910.909 491.029,887.605C489.929,864.302 489.175,837.67 488.768,807.708C488.36,777.747 488.157,747.369 488.157,716.576L488.157,317.091L498.667,317.091Z" style="fill:rgb(34,50,68);fill-opacity:0.85;fill-rule:nonzero;"/>
                <path d="M547.674,-0L558.062,-0L558.062,406.975L558.306,406.975C559.203,374.517 560.873,347.885 563.317,327.078C565.761,306.272 568.776,295.868 572.361,295.868C575.538,295.868 578.349,303.983 580.794,320.212C583.238,336.441 585.295,359.328 586.965,388.873C588.635,418.419 589.878,453.374 590.693,493.738C591.507,534.103 591.915,578.421 591.915,626.692C591.915,675.795 591.487,720.945 590.632,762.142C589.776,803.339 588.513,838.918 586.843,868.879C585.173,898.841 583.116,922.352 580.671,939.413C578.227,956.475 575.457,965.005 572.361,965.005C568.124,965.005 564.926,953.562 562.767,930.675C560.608,907.788 559.04,879.283 558.062,845.16L557.818,845.16L557.818,943.783L547.674,943.783L547.674,-0ZM557.818,630.437C557.818,664.56 558.062,696.185 558.551,725.315C559.04,754.444 559.773,779.828 560.751,801.466C561.728,823.105 562.971,840.166 564.478,852.65C565.985,865.134 567.717,871.376 569.672,871.376C571.709,871.376 573.44,865.134 574.866,852.65C576.292,840.166 577.473,823.105 578.41,801.466C579.347,779.828 580.04,754.444 580.488,725.315C580.936,696.185 581.16,664.56 581.16,630.437C581.16,596.314 580.936,564.48 580.488,534.935C580.04,505.39 579.347,479.798 578.41,458.159C577.473,436.52 576.292,419.459 574.866,406.975C573.44,394.491 571.709,388.249 569.672,388.249C567.717,388.249 566.006,394.491 564.539,406.975C563.073,419.459 561.83,436.52 560.812,458.159C559.793,479.798 559.04,505.39 558.551,534.935C558.062,564.48 557.818,596.314 557.818,630.437Z" style="fill:rgb(34,50,68);fill-opacity:0.85;fill-rule:nonzero;"/>
                <rect x="606.336" y="-0" width="10.51" height="943.783" style="fill:rgb(34,50,68);fill-opacity:0.85;fill-rule:nonzero;"/>
                <path d="M646.421,131.081C646.421,151.887 645.79,168.949 644.527,182.265C643.264,195.581 641.737,202.239 639.944,202.239C638.07,202.239 636.522,195.581 635.3,182.265C634.078,168.949 633.467,151.887 633.467,131.081C633.467,111.107 634.078,94.253 635.3,80.521C636.522,66.789 638.07,59.923 639.944,59.923C641.818,59.923 643.366,66.789 644.588,80.521C645.81,94.253 646.421,111.107 646.421,131.081ZM634.689,943.783L634.689,317.091L645.077,317.091L645.077,943.783L634.689,943.783Z" style="fill:rgb(34,50,68);fill-opacity:0.85;fill-rule:nonzero;"/>
                <path d="M695.551,907.579C692.21,945.863 687.607,965.005 681.741,965.005C678.074,965.005 674.856,956.891 672.086,940.662C669.316,924.433 667.014,901.546 665.181,872C663.348,842.455 661.963,807.292 661.026,766.511C660.089,725.731 659.62,680.373 659.62,630.437C659.62,580.501 660.089,535.143 661.026,494.362C661.963,453.582 663.368,418.419 665.242,388.873C667.116,359.328 669.438,336.441 672.208,320.212C674.978,303.983 678.197,295.868 681.863,295.868C685.122,295.868 687.872,301.486 690.112,312.722C692.353,323.957 694.125,336.233 695.429,349.549L690.173,429.446C689.196,417.795 688.055,408.432 686.752,401.357C685.448,394.283 683.859,390.746 681.985,390.746C680.03,390.746 678.319,396.78 676.852,408.848C675.386,420.915 674.184,437.561 673.247,458.783C672.31,480.006 671.597,505.182 671.108,534.311C670.62,563.44 670.375,595.482 670.375,630.437C670.375,665.392 670.599,697.226 671.047,725.939C671.495,754.652 672.208,779.411 673.186,800.218C674.164,821.024 675.427,837.254 676.975,848.905C678.523,860.557 680.396,866.383 682.596,866.383C684.47,866.383 686.079,862.637 687.424,855.147C688.768,847.657 689.929,837.67 690.907,825.186L695.551,907.579Z" style="fill:rgb(34,50,68);fill-opacity:0.85;fill-rule:nonzero;"/>
                <path d="M764.234,943.783L759.346,736.55L734.292,736.55L729.281,943.783L718.16,943.783L739.914,59.923L754.457,59.923L775.722,943.783L764.234,943.783ZM747.247,164.787L746.758,164.787L735.759,647.914L757.879,647.914L747.247,164.787Z" style="fill:rgb(31,44,63);fill-opacity:0.85;fill-rule:nonzero;"/>
                <path d="M818.13,907.579C814.789,945.863 810.186,965.005 804.32,965.005C800.653,965.005 797.435,956.891 794.665,940.662C791.895,924.433 789.593,901.546 787.76,872C785.927,842.455 784.542,807.292 783.605,766.511C782.668,725.731 782.199,680.373 782.199,630.437C782.199,580.501 782.668,535.143 783.605,494.362C784.542,453.582 785.947,418.419 787.821,388.873C789.695,359.328 792.017,336.441 794.787,320.212C797.557,303.983 800.776,295.868 804.442,295.868C807.701,295.868 810.451,301.486 812.691,312.722C814.932,323.957 816.704,336.233 818.007,349.549L812.752,429.446C811.775,417.795 810.634,408.432 809.33,401.357C808.027,394.283 806.438,390.746 804.564,390.746C802.609,390.746 800.898,396.78 799.431,408.848C797.965,420.915 796.763,437.561 795.826,458.783C794.889,480.006 794.176,505.182 793.687,534.311C793.198,563.44 792.954,595.482 792.954,630.437C792.954,665.392 793.178,697.226 793.626,725.939C794.074,754.652 794.787,779.411 795.765,800.218C796.743,821.024 798.005,837.254 799.553,848.905C801.101,860.557 802.975,866.383 805.175,866.383C807.049,866.383 808.658,862.637 810.003,855.147C811.347,847.657 812.508,837.67 813.486,825.186L818.13,907.579Z" style="fill:rgb(31,44,63);fill-opacity:0.85;fill-rule:nonzero;"/>
                <path d="M860.171,907.579C856.83,945.863 852.227,965.005 846.361,965.005C842.694,965.005 839.476,956.891 836.706,940.662C833.936,924.433 831.634,901.546 829.801,872C827.968,842.455 826.583,807.292 825.646,766.511C824.709,725.731 824.24,680.373 824.24,630.437C824.24,580.501 824.709,535.143 825.646,494.362C826.583,453.582 827.988,418.419 829.862,388.873C831.736,359.328 834.058,336.441 836.828,320.212C839.598,303.983 842.817,295.868 846.483,295.868C849.742,295.868 852.492,301.486 854.732,312.722C856.973,323.957 858.745,336.233 860.048,349.549L854.793,429.446C853.816,417.795 852.675,408.432 851.371,401.357C850.068,394.283 848.479,390.746 846.605,390.746C844.65,390.746 842.939,396.78 841.472,408.848C840.006,420.915 838.804,437.561 837.867,458.783C836.93,480.006 836.217,505.182 835.728,534.311C835.239,563.44 834.995,595.482 834.995,630.437C834.995,665.392 835.219,697.226 835.667,725.939C836.115,754.652 836.828,779.411 837.806,800.218C838.784,821.024 840.046,837.254 841.594,848.905C843.142,860.557 845.016,866.383 847.216,866.383C849.09,866.383 850.699,862.637 852.044,855.147C853.388,847.657 854.549,837.67 855.527,825.186L860.171,907.579Z" style="fill:rgb(31,44,63);fill-opacity:0.85;fill-rule:nonzero;"/>
                <path d="M910.889,631.685C910.889,681.621 910.38,726.979 909.361,767.76C908.343,808.541 906.876,843.495 904.961,872.625C903.047,901.754 900.704,924.433 897.934,940.662C895.164,956.891 892.027,965.005 888.524,965.005C885.102,965.005 882.006,956.891 879.236,940.662C876.466,924.433 874.123,901.754 872.209,872.625C870.294,843.495 868.827,808.541 867.809,767.76C866.79,726.979 866.281,681.621 866.281,631.685C866.281,581.75 866.79,535.975 867.809,494.362C868.827,452.749 870.274,417.378 872.147,388.249C874.021,359.12 876.343,336.441 879.114,320.212C881.884,303.983 885.02,295.868 888.524,295.868C892.027,295.868 895.164,303.983 897.934,320.212C900.704,336.441 903.047,359.12 904.961,388.249C906.876,417.378 908.343,452.749 909.361,494.362C910.38,535.975 910.889,581.75 910.889,631.685ZM900.134,630.437C900.134,596.314 899.91,564.48 899.462,534.935C899.014,505.39 898.301,479.798 897.323,458.159C896.345,436.52 895.123,419.459 893.657,406.975C892.19,394.491 890.479,388.249 888.524,388.249C886.568,388.249 884.858,394.491 883.391,406.975C881.924,419.459 880.723,436.52 879.786,458.159C878.849,479.798 878.156,505.39 877.708,534.935C877.26,564.48 877.036,596.314 877.036,630.437C877.036,664.56 877.26,696.185 877.708,725.315C878.156,754.444 878.849,779.828 879.786,801.466C880.723,823.105 881.924,840.166 883.391,852.65C884.858,865.134 886.568,871.376 888.524,871.376C890.561,871.376 892.312,865.134 893.779,852.65C895.246,840.166 896.447,823.105 897.384,801.466C898.321,779.828 899.014,754.444 899.462,725.315C899.91,696.185 900.134,664.56 900.134,630.437Z" style="fill:rgb(31,44,63);fill-opacity:0.85;fill-rule:nonzero;"/>
                <path d="M935.331,317.091L935.331,716.576C935.331,734.053 935.413,751.947 935.576,770.257C935.739,788.566 936.126,805.212 936.737,820.192C937.348,835.173 938.224,847.241 939.364,856.396C940.505,865.55 942.053,870.128 944.008,870.128C945.719,870.128 947.308,865.342 948.775,855.771C950.241,846.2 951.504,832.884 952.563,815.823C953.622,798.761 954.437,778.371 955.007,754.652C955.578,730.932 955.863,704.924 955.863,676.627L955.863,317.091L966.251,317.091L966.251,785.237C966.251,810.205 966.292,837.045 966.373,865.758C966.455,894.471 966.577,920.48 966.74,943.783L956.841,943.783C956.596,922.976 956.413,902.17 956.291,881.363C956.168,860.557 956.107,845.16 956.107,835.173L955.863,835.173C954.722,871.792 952.828,902.586 950.18,927.554C947.532,952.522 944.293,965.005 940.464,965.005C937.124,965.005 934.435,957.931 932.398,943.783C930.361,929.634 928.793,910.909 927.693,887.605C926.593,864.302 925.839,837.67 925.432,807.708C925.025,777.747 924.821,747.369 924.821,716.576L924.821,317.091L935.331,317.091Z" style="fill:rgb(31,44,63);fill-opacity:0.85;fill-rule:nonzero;"/>
                <path d="M1015.5,943.783L1015.5,544.298C1015.5,526.821 1015.42,508.927 1015.26,490.617C1015.1,472.308 1014.71,455.662 1014.1,440.682C1013.49,425.701 1012.61,413.633 1011.47,404.478C1010.33,395.323 1008.78,390.746 1006.83,390.746C1005.11,390.746 1003.53,395.532 1002.06,405.103C1000.59,414.674 999.33,427.99 998.27,445.051C997.211,462.112 996.397,482.503 995.826,506.222C995.256,529.942 994.971,555.95 994.971,584.246L994.971,943.783L984.583,943.783L984.583,475.637C984.583,450.669 984.542,423.828 984.46,395.115C984.379,366.402 984.257,340.394 984.094,317.091L993.993,317.091C994.237,337.898 994.421,358.704 994.543,379.511C994.665,400.317 994.726,415.714 994.726,425.701L994.971,425.701C996.111,389.082 998.006,358.288 1000.65,333.32C1003.3,308.352 1006.54,295.868 1010.37,295.868C1013.63,295.868 1016.3,302.943 1018.37,317.091C1020.45,331.239 1022.04,349.965 1023.14,373.269C1024.24,396.572 1024.99,423.204 1025.4,453.166C1025.81,483.127 1026.01,513.504 1026.01,544.298L1026.01,943.783L1015.5,943.783Z" style="fill:rgb(31,44,63);fill-opacity:0.85;fill-rule:nonzero;"/>
                <path d="M1065.24,942.534C1064.35,947.528 1063.16,951.689 1061.7,955.018C1060.23,958.347 1058.77,960.012 1057.3,960.012C1052.57,960.012 1049.21,944.615 1047.22,913.821C1045.22,883.028 1044.22,840.166 1044.22,785.237L1044.22,403.23L1036.4,403.23L1036.4,317.091L1044.1,317.091L1044.1,149.807L1054.24,149.807L1054.24,317.091L1065.12,317.091L1065.12,403.23L1054.24,403.23L1054.24,764.015C1054.24,800.634 1054.77,827.058 1055.83,843.287C1056.89,859.516 1058.48,867.631 1060.6,867.631C1061.33,867.631 1062.11,866.591 1062.92,864.51C1063.74,862.429 1064.43,860.141 1065,857.644L1065.24,942.534Z" style="fill:rgb(31,44,63);fill-opacity:0.85;fill-rule:nonzero;"/>
                <path d="M1102.03,943.783C1101.7,924.641 1101.46,905.499 1101.3,886.357C1101.13,867.215 1101.05,851.818 1101.05,840.166L1100.81,840.166C1099.91,877.618 1098.3,906.955 1095.98,928.178C1093.66,949.401 1090.46,960.012 1086.38,960.012C1084.67,960.012 1082.92,956.683 1081.13,950.025C1079.34,943.367 1077.73,932.547 1076.3,917.567C1074.88,902.586 1073.7,883.444 1072.76,860.141C1071.82,836.837 1071.35,808.124 1071.35,774.002C1071.35,729.06 1072.15,692.232 1073.74,663.519C1075.33,634.806 1077.32,612.335 1079.72,596.106C1082.13,579.877 1084.8,568.85 1087.73,563.024C1090.66,557.198 1093.47,554.285 1096.16,554.285L1100.19,554.285L1100.19,526.821C1100.19,477.717 1099.28,442.138 1097.45,420.083C1095.61,398.028 1093.15,387.001 1090.05,387.001C1087.77,387.001 1085.65,392.827 1083.7,404.478C1081.74,416.13 1080.07,431.527 1078.69,450.669L1073.43,384.504C1075.47,356.207 1078.12,334.36 1081.38,318.964C1084.63,303.567 1087.85,295.868 1091.03,295.868C1094.53,295.868 1097.49,301.694 1099.89,313.346C1102.29,324.998 1104.23,342.059 1105.69,364.53C1107.16,387.001 1108.2,414.674 1108.81,447.548C1109.42,480.422 1109.73,517.666 1109.73,559.279L1109.73,812.702C1109.73,834.341 1109.81,857.852 1109.97,883.236C1110.13,908.62 1110.34,928.802 1110.58,943.783L1102.03,943.783ZM1100.44,635.43L1095.92,635.43C1094.04,635.43 1092.23,637.095 1090.48,640.424C1088.73,643.753 1087.16,650.203 1085.77,659.774C1084.39,669.345 1083.27,682.453 1082.41,699.098C1081.56,715.744 1081.13,736.966 1081.13,762.766C1081.13,801.05 1081.94,829.139 1083.58,847.033C1085.2,864.926 1087.08,873.873 1089.2,873.873C1091.32,873.873 1093.09,867.423 1094.51,854.523C1095.94,841.623 1097.1,825.186 1098,805.212C1098.89,785.237 1099.52,763.39 1099.89,739.671C1100.26,715.952 1100.44,693.273 1100.44,671.634L1100.44,635.43Z" style="fill:rgb(31,44,63);fill-opacity:0.85;fill-rule:nonzero;"/>
                <path d="M1157.51,943.783L1157.51,544.298C1157.51,526.821 1157.43,508.927 1157.27,490.617C1157.11,472.308 1156.72,455.662 1156.11,440.682C1155.5,425.701 1154.62,413.633 1153.48,404.478C1152.34,395.323 1150.79,390.746 1148.84,390.746C1147.12,390.746 1145.54,395.532 1144.07,405.103C1142.6,414.674 1141.34,427.99 1140.28,445.051C1139.22,462.112 1138.41,482.503 1137.84,506.222C1137.27,529.942 1136.98,555.95 1136.98,584.246L1136.98,943.783L1126.59,943.783L1126.59,475.637C1126.59,450.669 1126.55,423.828 1126.47,395.115C1126.39,366.402 1126.27,340.394 1126.1,317.091L1136,317.091C1136.25,337.898 1136.43,358.704 1136.55,379.511C1136.68,400.317 1136.74,415.714 1136.74,425.701L1136.98,425.701C1138.12,389.082 1140.02,358.288 1142.66,333.32C1145.31,308.352 1148.55,295.868 1152.38,295.868C1155.64,295.868 1158.31,302.943 1160.38,317.091C1162.46,331.239 1164.05,349.965 1165.15,373.269C1166.25,396.572 1167.01,423.204 1167.41,453.166C1167.82,483.127 1168.02,513.504 1168.02,544.298L1168.02,943.783L1157.51,943.783Z" style="fill:rgb(31,44,63);fill-opacity:0.85;fill-rule:nonzero;"/>
                <path d="M1207.25,942.534C1206.36,947.528 1205.18,951.689 1203.71,955.018C1202.24,958.347 1200.78,960.012 1199.31,960.012C1194.58,960.012 1191.22,944.615 1189.23,913.821C1187.23,883.028 1186.23,840.166 1186.23,785.237L1186.23,403.23L1178.41,403.23L1178.41,317.091L1186.11,317.091L1186.11,149.807L1196.25,149.807L1196.25,317.091L1207.13,317.091L1207.13,403.23L1196.25,403.23L1196.25,764.015C1196.25,800.634 1196.78,827.058 1197.84,843.287C1198.9,859.516 1200.49,867.631 1202.61,867.631C1203.34,867.631 1204.12,866.591 1204.93,864.51C1205.75,862.429 1206.44,860.141 1207.01,857.644L1207.25,942.534Z" style="fill:rgb(31,44,63);fill-opacity:0.85;fill-rule:nonzero;"/>
                <path d="M1241.96,435.688C1240.9,419.875 1239.54,406.767 1237.87,396.364C1236.2,385.961 1234.22,380.759 1231.94,380.759C1229.58,380.759 1227.62,389.29 1226.07,406.351C1224.53,423.412 1223.75,446.507 1223.75,475.637C1223.75,504.766 1224.55,525.988 1226.13,539.304C1227.72,552.621 1230.15,565.521 1233.41,578.005C1235.12,584.663 1236.81,592.777 1238.48,602.348C1240.15,611.919 1241.66,624.195 1243,639.176C1244.35,654.156 1245.42,671.842 1246.24,692.232C1247.05,712.623 1247.46,736.966 1247.46,765.263C1247.46,797.721 1246.99,826.434 1246.06,851.402C1245.12,876.37 1243.82,897.176 1242.14,913.821C1240.48,930.467 1238.5,943.159 1236.22,951.897C1233.94,960.636 1231.45,965.005 1228.76,965.005C1225.1,965.005 1221.76,957.307 1218.74,941.91C1215.73,926.513 1213.2,905.915 1211.16,880.115L1217.28,811.453C1218.66,828.931 1220.29,844.12 1222.16,857.02C1224.04,869.92 1226.36,876.37 1229.13,876.37C1231.74,876.37 1233.79,866.799 1235.3,847.657C1236.81,828.515 1237.56,803.547 1237.56,772.753C1237.56,755.276 1237.28,740.295 1236.71,727.811C1236.14,715.327 1235.36,704.716 1234.38,695.977C1233.41,687.239 1232.25,679.748 1230.9,673.506C1229.56,667.264 1228.11,661.231 1226.56,655.405C1225.02,649.579 1223.49,642.505 1221.98,634.182C1220.47,625.859 1219.11,614.832 1217.89,601.1C1216.66,587.367 1215.69,570.722 1214.95,551.164C1214.22,531.606 1213.85,507.679 1213.85,479.382C1213.85,451.917 1214.32,426.949 1215.26,404.478C1216.19,382.007 1217.48,362.657 1219.11,346.428C1220.74,330.199 1222.65,317.715 1224.85,308.977C1227.05,300.238 1229.41,295.868 1231.94,295.868C1235.61,295.868 1238.76,302.318 1241.41,315.218C1244.06,328.118 1246.24,344.972 1247.95,365.778L1241.96,435.688Z" style="fill:rgb(31,44,63);fill-opacity:0.85;fill-rule:nonzero;"/>
            </g>
            <g transform="matrix(0.996194,0,0,0.996194,-1316.46,397.555)">
                <g transform="matrix(0.792733,0,0,1.05567,481.693,-521.046)">
                    <path d="M1248.63,958.29L1241.56,943.501L1203.16,943.501L1231.59,1002.61" style="fill:none;stroke:rgb(49,51,55);stroke-width:8.96px;"/>
                </g>
                <g transform="matrix(1.15269,0,0.276183,-1.32724,-171.047,1774.51)">
                    <path d="M1245.65,972.656L1221.6,931.187" style="fill:none;stroke:rgb(196,178,139);stroke-width:6.07px;"/>
                </g>
                <g transform="matrix(1.15269,0,0.276183,-1.32724,-171.047,1774.51)">
                    <path d="M1190.55,931.187L1231.59,1002.61" style="fill:none;stroke:rgb(49,51,55);stroke-width:6.07px;"/>
                </g>
            </g>
        </g>
    </g>
</svg>
